<svg id="Layer_1" data-name="Layer 1" xmlns="http://www.w3.org/2000/svg" xmlns:xlink="http://www.w3.org/1999/xlink" viewBox="0 0 105 119"><defs><style>.cls-1{fill:none;}.cls-2{fill:#009ddc;}.cls-3{fill:#fff;}.cls-4{clip-path:url(#clip-path);}</style><clipPath id="clip-path"><path class="cls-1" d="M44.26,79.21A20.34,20.34,0,0,1,59,72.88,20.57,20.57,0,0,1,76.9,83.5,24.81,24.81,0,0,1,87,81.35a25.26,25.26,0,0,1,0,50.51,24.39,24.39,0,0,1-4.93-.5,18.27,18.27,0,0,1-24,7.53A20.87,20.87,0,0,1,19.31,138,19.36,19.36,0,0,1-4.06,118.78a19.62,19.62,0,0,1,9.69-17A22.55,22.55,0,0,1,44.26,79.21Z"/></clipPath></defs><path class="cls-2" d="M52.57,113.38a4,4,0,0,1-2-.53l-43.3-25a4,4,0,0,1-2-3.47v-50a4,4,0,0,1,2-3.46l43.3-25a4,4,0,0,1,4,0l43.3,25a4,4,0,0,1,2,3.46v50a4,4,0,0,1-2,3.47l-43.3,25A4,4,0,0,1,52.57,113.38Z"/><path class="cls-2" d="M52.57,9.38l43.3,25v50l-43.3,25-43.3-25v-50l43.3-25m0-8a7.93,7.93,0,0,0-4,1.08l-43.3,25a8,8,0,0,0-4,6.92v50a8,8,0,0,0,4,6.93l43.3,25a8,8,0,0,0,8,0l43.3-25a8,8,0,0,0,4-6.93v-50a8,8,0,0,0-4-6.92l-43.3-25a8,8,0,0,0-4-1.08Z"/><path class="cls-2" d="M53,111.38a2,2,0,0,1-1-.26l-43.3-25a2,2,0,0,1-1-1.74v-50a2,2,0,0,1,1-1.73L52,7.65a2,2,0,0,1,2,0l43.3,25a2,2,0,0,1,1,1.73v50a2,2,0,0,1-1,1.74l-43.3,25A2,2,0,0,1,53,111.38Z"/><path class="cls-3" d="M53,9.38l43.3,25v50l-43.3,25-43.3-25v-50L53,9.38m0-4a4,4,0,0,0-2,.54l-43.3,25a4,4,0,0,0-2,3.46v50a4,4,0,0,0,2,3.47l43.3,25a4,4,0,0,0,4,0l43.3-25a4,4,0,0,0,2-3.47v-50a4,4,0,0,0-2-3.46L55,5.92a4,4,0,0,0-2-.54Z"/><path id="Bird" class="cls-3" d="M57.59,24.36c18.22,12.38,12.32,26,12.32,26s5.18,5.83,3.1,10.95c0,0-2.15-3.57-5.72-3.57s-5.48,3.57-12.44,3.57C39.37,61.33,32,48.41,32,48.41,46,57.6,55.5,51.09,55.5,51.09,49.21,47.44,35.85,30,35.85,30,47.5,39.92,52.52,42.52,52.52,42.52c-3-2.48-11.43-14.59-11.43-14.59,6.74,6.82,20.13,16.32,20.13,16.32C65,33.75,57.59,24.36,57.59,24.36Z"/><g class="cls-4"><polygon class="cls-3" points="9.7 36.88 9.7 86.88 53 111.88 96.3 86.88 96.3 36.88 53 11.88 9.7 36.88"/></g></svg>